<?xml version="1.0" encoding="iso-8859-1"?>
<!-- Uploaded to: SVG Repo, www.svgrepo.com, Generator: SVG Repo Mixer Tools -->
<svg fill="#000000" height="800px" width="800px" version="1.1" id="Layer_1" xmlns="http://www.w3.org/2000/svg" xmlns:xlink="http://www.w3.org/1999/xlink" 
	 viewBox="0 0 448 448" xml:space="preserve">
<g>
	<g>
		<path d="M383.695,253.333L319.695,8c-1.173-4.693-5.44-8-10.347-8H138.682c-4.907,0-9.067,3.307-10.347,8l-64,245.333
			c-1.493,5.653,1.92,11.52,7.68,13.013c0.853,0.213,1.813,0.32,2.667,0.32h138.667v160h-74.347c-5.333,0-10.133,3.84-10.88,9.067
			c-0.96,6.613,4.16,12.267,10.56,12.267h170.347c5.333,0,10.133-3.84,10.88-9.067c0.96-6.613-4.16-12.267-10.56-12.267h-74.667
			v-160h138.667c5.867,0,10.667-4.8,10.667-10.667C384.015,255.147,383.909,254.187,383.695,253.333z M88.442,245.333l58.453-224
			h154.24l58.453,224H88.442z"/>
	</g>
</g>
</svg>